HIERARCHY
ROOT Model
{
	OFFSET 0 0 0
	CHANNELS 6 Xposition Yposition Zposition Zrotation Xrotation Yrotation
	JOINT Model1
	{
		OFFSET 0 -2.25479 2.99384
		CHANNELS 3 Zrotation Xrotation Yrotation
		JOINT Model2
		{
			OFFSET 12.111 0 0
			CHANNELS 3 Zrotation Xrotation Yrotation
			JOINT Model3
			{
				OFFSET 11.5502 0 0
				CHANNELS 3 Zrotation Xrotation Yrotation
				JOINT Model4
				{
					OFFSET 11.781 0 0
					CHANNELS 3 Zrotation Xrotation Yrotation
					JOINT Model5
					{
						OFFSET 20.0601 0 0
						CHANNELS 3 Zrotation Xrotation Yrotation
						JOINT Model6
						{
							OFFSET 11.1962 0 0
							CHANNELS 3 Zrotation Xrotation Yrotation
							End Site
							{
								OFFSET 0 0 0
							}
						}
					}
					JOINT Model7
					{
						OFFSET 10.8223 0.417534 3.51114
						CHANNELS 3 Zrotation Xrotation Yrotation
						JOINT Model8
						{
							OFFSET -6.07944 0 0
							CHANNELS 3 Zrotation Xrotation Yrotation
							JOINT Model9
							{
								OFFSET -0.277405 10.39 -0.051239
								CHANNELS 3 Zrotation Xrotation Yrotation
								JOINT Model10
								{
									OFFSET -3.43909 -0.282043 1.86679
									CHANNELS 3 Zrotation Xrotation Yrotation
									JOINT Model11
									{
										OFFSET 13.0269 0 0
										CHANNELS 3 Zrotation Xrotation Yrotation
										JOINT Model12
										{
											OFFSET 10.8866 0 0
											CHANNELS 3 Zrotation Xrotation Yrotation
											JOINT Model13
											{
												OFFSET 16.7317 0 0
												CHANNELS 3 Zrotation Xrotation Yrotation
												JOINT Model14
												{
													OFFSET 11.8292 0 0
													CHANNELS 3 Zrotation Xrotation Yrotation
													JOINT Model15
													{
														OFFSET 4.82751 -3.73566 -0.836517
														CHANNELS 3 Zrotation Xrotation Yrotation
														JOINT Model16
														{
															OFFSET 3.75311 -0.0582886 -0.0186462
															CHANNELS 3 Zrotation Xrotation Yrotation
															JOINT Model17
															{
																OFFSET 2.88689 0.0192337 0.014801
																CHANNELS 3 Zrotation Xrotation Yrotation
																End Site
																{
																	OFFSET 0 0 0
																}
															}
														}
													}
													JOINT Model18
													{
														OFFSET 9.72197 -3.06458 0.23877
														CHANNELS 3 Zrotation Xrotation Yrotation
														JOINT Model19
														{
															OFFSET 4.61131 0 0
															CHANNELS 3 Zrotation Xrotation Yrotation
															JOINT Model20
															{
																OFFSET 2.8969 -7.62939e-006 0
																CHANNELS 3 Zrotation Xrotation Yrotation
																End Site
																{
																	OFFSET 0 0 0
																}
															}
														}
													}
													JOINT Model21
													{
														OFFSET 9.54431 -0.745064 0.588928
														CHANNELS 3 Zrotation Xrotation Yrotation
														JOINT Model22
														{
															OFFSET 5.33978 0 0
															CHANNELS 3 Zrotation Xrotation Yrotation
															JOINT Model23
															{
																OFFSET 3.03619 7.62939e-006 0
																CHANNELS 3 Zrotation Xrotation Yrotation
																End Site
																{
																	OFFSET 0 0 0
																}
															}
														}
													}
													JOINT Model24
													{
														OFFSET 9.47758 1.51286 0.485107
														CHANNELS 3 Zrotation Xrotation Yrotation
														JOINT Model25
														{
															OFFSET 4.96136 7.62939e-006 0
															CHANNELS 3 Zrotation Xrotation Yrotation
															JOINT Model26
															{
																OFFSET 2.51965 0 0
																CHANNELS 3 Zrotation Xrotation Yrotation
																End Site
																{
																	OFFSET 0 0 0
																}
															}
														}
													}
													JOINT Model27
													{
														OFFSET 9.34247 3.34117 -0.239288
														CHANNELS 3 Zrotation Xrotation Yrotation
														JOINT Model28
														{
															OFFSET 3.28259 2.28882e-005 0
															CHANNELS 3 Zrotation Xrotation Yrotation
															JOINT Model29
															{
																OFFSET 2.1292 0 0
																CHANNELS 3 Zrotation Xrotation Yrotation
																End Site
																{
																	OFFSET 0 0 0
																}
															}
														}
													}
												}
											}
										}
									}
								}
							}
						}
					}
					JOINT Model30
					{
						OFFSET 10.8223 0.4179 -3.51108
						CHANNELS 3 Zrotation Xrotation Yrotation
						JOINT Model31
						{
							OFFSET 6.07944 0 0
							CHANNELS 3 Zrotation Xrotation Yrotation
							JOINT Model32
							{
								OFFSET 0.277405 -10.39 0.051239
								CHANNELS 3 Zrotation Xrotation Yrotation
								JOINT Model33
								{
									OFFSET 3.43909 0.282043 -1.86679
									CHANNELS 3 Zrotation Xrotation Yrotation
									JOINT Model34
									{
										OFFSET -13.0269 0 0
										CHANNELS 3 Zrotation Xrotation Yrotation
										JOINT Model35
										{
											OFFSET -10.8866 0 0
											CHANNELS 3 Zrotation Xrotation Yrotation
											JOINT Model36
											{
												OFFSET -16.7317 0 0
												CHANNELS 3 Zrotation Xrotation Yrotation
												JOINT Model37
												{
													OFFSET -11.8292 0 0
													CHANNELS 3 Zrotation Xrotation Yrotation
													JOINT Model38
													{
														OFFSET -4.82751 3.73566 0.836517
														CHANNELS 3 Zrotation Xrotation Yrotation
														JOINT Model39
														{
															OFFSET -3.75311 0.0582886 0.0186462
															CHANNELS 3 Zrotation Xrotation Yrotation
															JOINT Model40
															{
																OFFSET -2.88687 -0.0192337 -0.014801
																CHANNELS 3 Zrotation Xrotation Yrotation
																End Site
																{
																	OFFSET 0 0 0
																}
															}
														}
													}
													JOINT Model41
													{
														OFFSET -9.72198 3.06459 -0.23877
														CHANNELS 3 Zrotation Xrotation Yrotation
														JOINT Model42
														{
															OFFSET -4.6113 0 0
															CHANNELS 3 Zrotation Xrotation Yrotation
															JOINT Model43
															{
																OFFSET -2.89691 0 0
																CHANNELS 3 Zrotation Xrotation Yrotation
																End Site
																{
																	OFFSET 0 0 0
																}
															}
														}
													}
													JOINT Model44
													{
														OFFSET -9.54431 0.745064 -0.588928
														CHANNELS 3 Zrotation Xrotation Yrotation
														JOINT Model45
														{
															OFFSET -5.33978 0 0
															CHANNELS 3 Zrotation Xrotation Yrotation
															JOINT Model46
															{
																OFFSET -3.03619 -1.52588e-005 0
																CHANNELS 3 Zrotation Xrotation Yrotation
																End Site
																{
																	OFFSET 0 0 0
																}
															}
														}
													}
													JOINT Model47
													{
														OFFSET -9.4776 -1.51286 -0.485107
														CHANNELS 3 Zrotation Xrotation Yrotation
														JOINT Model48
														{
															OFFSET -4.96136 -1.52588e-005 0
															CHANNELS 3 Zrotation Xrotation Yrotation
															JOINT Model49
															{
																OFFSET -2.51965 0 0
																CHANNELS 3 Zrotation Xrotation Yrotation
																End Site
																{
																	OFFSET 0 0 0
																}
															}
														}
													}
													JOINT Model50
													{
														OFFSET -9.34247 -3.34118 0.239288
														CHANNELS 3 Zrotation Xrotation Yrotation
														JOINT Model51
														{
															OFFSET -3.28259 -2.28882e-005 0
															CHANNELS 3 Zrotation Xrotation Yrotation
															JOINT Model52
															{
																OFFSET -2.12921 0 0
																CHANNELS 3 Zrotation Xrotation Yrotation
																End Site
																{
																	OFFSET 0 0 0
																}
															}
														}
													}
												}
											}
										}
									}
								}
							}
						}
					}
				}
			}
		}
	}
	JOINT Model53
	{
		OFFSET 4.38025 -2.14632 -1.11517
		CHANNELS 3 Zrotation Xrotation Yrotation
		JOINT Model54
		{
			OFFSET 0 0 4.94998
			CHANNELS 3 Zrotation Xrotation Yrotation
			JOINT Model55
			{
				OFFSET 18.5642 0 0
				CHANNELS 3 Zrotation Xrotation Yrotation
				JOINT Model56
				{
					OFFSET 21.2884 0 0
					CHANNELS 3 Zrotation Xrotation Yrotation
					JOINT Model57
					{
						OFFSET 30.261 0 0
						CHANNELS 3 Zrotation Xrotation Yrotation
						JOINT Model58
						{
							OFFSET 11.7259 0 0
							CHANNELS 3 Zrotation Xrotation Yrotation
							JOINT Model59
							{
								OFFSET 10.682 0 0
								CHANNELS 3 Zrotation Xrotation Yrotation
								End Site
								{
									OFFSET 0 0 0
								}
							}
						}
					}
				}
			}
		}
	}
	JOINT Model60
	{
		OFFSET -4.38025 -2.14632 -1.11517
		CHANNELS 3 Zrotation Xrotation Yrotation
		JOINT Model61
		{
			OFFSET 0 0 -4.94998
			CHANNELS 3 Zrotation Xrotation Yrotation
			JOINT Model62
			{
				OFFSET -18.5642 0 0
				CHANNELS 3 Zrotation Xrotation Yrotation
				JOINT Model63
				{
					OFFSET -21.2884 0 0
					CHANNELS 3 Zrotation Xrotation Yrotation
					JOINT Model64
					{
						OFFSET -30.261 0 0
						CHANNELS 3 Zrotation Xrotation Yrotation
						JOINT Model65
						{
							OFFSET -11.7259 0 0
							CHANNELS 3 Zrotation Xrotation Yrotation
							JOINT Model66
							{
								OFFSET -10.682 0 0
								CHANNELS 3 Zrotation Xrotation Yrotation
								End Site
								{
									OFFSET 0 0 0
								}
							}
						}
					}
				}
			}
		}
	}
}
MOTION
Frames: 4
Frame Time: 0.033333
-569.879 159.542 -638.489 66.3756 -59.9334 71.7831 -180 4.29621e-031 -90 2.66796 -1.43709 1.90265 5.38461 -2.78365 3.87189 5.38461 -2.78322 3.87185 2.16132 7.83738 6.65483 -0.179371 9.74057 -9.63284 120.092 75.5343 58.4939 -4.98289 10.3386 4.82832 -167.277 84.4999 48.8109 127.453 13.0326 32.3478 -2.14222e-005 47.3903 4.42321e-005 -75.7264 24.0558 0.645632 1.66207e-007 35.4903 -5.73466e-007 6.83544 -1.04775 -17.4093 -72.0648 39.0385 39.3397 33.3638 2.10362 14.835 0.588947 0.308273 6.35287 -99.6409 81.413 100.35 -0.0181409 2.77908e-005 -0.117315 -0.124139 0.00241114 -0.799296 -79.8382 79.5773 80.5374 -0.000225786 -0.000220911 2.21943e-005 -0.000956239 0.000122911 -2.73208e-005 -66.7416 80.4058 67.2171 -0.000437142 1.59575e-005 -2.73205e-005 -0.000136617 -0.000109275 -5.46412e-005 -6.42159 81.2158 8.01779 -0.000218577 1.69148e-005 0.000212141 0.000901569 -0.000184793 -0.000218565 -59.9282 75.5373 58.5147 -8.65638 2.96612 2.99841 -167.277 84.4999 48.8109 -143.763 10.1867 12.7717 -1.09533e-005 31.6209 3.41674e-005 -102.044 13.6006 0.613149 -5.27958e-006 20.1814 2.1721e-006 -12.6384 0.84566 -7.62533 -72.0648 39.0385 39.3397 33.3638 2.10361 14.835 0.588946 0.308273 6.35287 -99.6409 81.413 100.35 -0.0181409 3.00989e-005 -0.117315 -0.124139 0.00241116 -0.799296 -79.8382 79.5773 80.5374 -0.000260633 -0.000218546 2.35664e-005 -0.000956209 0.000123023 -2.73261e-005 -66.7416 80.4058 67.2171 -0.000437119 1.4902e-005 -2.73258e-005 -0.000136586 -0.000109255 -5.46483e-005 -6.42159 81.2158 8.01779 -0.000218552 1.96012e-005 0.000212288 0.000901602 -0.000191215 -0.000218578 0.000811311 0.56661 89.91 -5.5867 -4.20951 -3.6246 9.32541e-007 -3.40722 -1.50958e-008 57.7765 0.99098 -0.00706344 -3.15176e-008 1.38408 -2.16591e-008 -48.0211 -6.15583 4.70587 -99.9328 7.57006 5.45305 -180 -0.566579 -90.09 -71.3532 2.30128 8.99723 -8.20307e-007 4.85096 -2.79774e-008 63.3892 -1.54778 -0.00722982 3.77919e-007 -2.43073 -9.63577e-009 -54.3071 -0.434318 -0.107214 -35.4947 -1.12556e-007 -1.89256e-008 
-566.762 159.947 -633.927 65.2768 -59.9707 71.196 -180 4.29621e-031 -90 2.453 -1.37428 1.97903 4.95405 -2.66218 4.01673 4.95405 -2.66174 4.01669 0.984603 7.77351 6.53514 1.26066 9.5955 -9.83019 120.092 75.5343 58.4939 -5.04996 10.2556 4.81771 -167.277 84.4999 48.8109 127.522 13.0964 32.4769 -2.15548e-005 47.5063 4.43298e-005 -75.456 24.2133 0.645625 1.69093e-007 35.7244 -5.75146e-007 7.35725 -1.15092 -17.7584 -72.0648 39.0385 39.3397 33.3638 2.10362 14.835 0.588947 0.308273 6.35287 -99.6409 81.413 100.35 -0.0181409 2.77908e-005 -0.117315 -0.124139 0.00241114 -0.799296 -79.8382 79.5773 80.5374 -0.000225786 -0.000220911 2.21943e-005 -0.000956239 0.000122911 -2.73208e-005 -66.7416 80.4058 67.2171 -0.000437142 1.59575e-005 -2.73205e-005 -0.000136617 -0.000109275 -5.46412e-005 -6.42159 81.2158 8.01779 -0.000218577 1.69148e-005 0.000212141 0.000901569 -0.000184793 -0.000218565 -59.9282 75.5373 58.5147 -7.9679 3.57386 3.08682 -167.277 84.4999 48.8109 -144.276 10.6501 13.1184 -1.12458e-005 32.0368 3.43217e-005 -101.656 13.1142 0.612761 -5.24996e-006 19.4445 2.16206e-006 -12.35 0.882179 -8.14017 -72.0648 39.0385 39.3397 33.3638 2.10361 14.835 0.588946 0.308273 6.35287 -99.6409 81.413 100.35 -0.0181409 3.00989e-005 -0.117315 -0.124139 0.00241116 -0.799296 -79.8382 79.5773 80.5374 -0.000260633 -0.000218546 2.35664e-005 -0.000956209 0.000123023 -2.73261e-005 -66.7416 80.4058 67.2171 -0.000437119 1.4902e-005 -2.73258e-005 -0.000136586 -0.000109255 -5.46483e-005 -6.42159 81.2158 8.01779 -0.000218552 1.96012e-005 0.000212288 0.000901602 -0.000191215 -0.000218578 0.000811311 0.56661 89.91 -5.52492 -3.92989 -3.99691 9.3273e-007 -2.69213 -1.50858e-008 55.461 2.38295 -0.00683175 -3.07259e-008 3.475 -2.16927e-008 -27.6884 -4.1258 5.5387 -114.826 13.0628 19.5387 -180 -0.566579 -90.09 -70.0585 2.64053 10.2257 -8.20058e-007 5.35869 -2.79995e-008 68.0086 -2.14962 -0.00751531 3.77766e-007 -3.33791 -9.64346e-009 -60.6463 -1.273 0.137993 -35.4947 -3.92744e-007 -1.25886e-007 
-564.11 160.359 -630.083 64.3469 -59.4859 70.5968 -180 4.29621e-031 -90 2.33642 -1.36492 2.01322 4.72129 -2.64619 4.08207 4.72129 -2.64576 4.08204 -0.856384 7.48565 6.62447 2.80123 9.30272 -10.2348 120.092 75.5343 58.4939 -4.73454 10.4439 4.79682 -167.277 84.4999 48.8109 127.568 12.9796 32.4653 -2.13313e-005 47.3104 4.41653e-005 -75.588 24.6754 0.648372 1.77753e-007 36.4186 -5.80245e-007 8.01183 -1.26002 -17.8475 -72.0648 39.0385 39.3397 33.3638 2.10362 14.835 0.588947 0.308273 6.35287 -99.6409 81.413 100.35 -0.0181409 2.77908e-005 -0.117315 -0.124139 0.00241114 -0.799296 -79.8382 79.5773 80.5374 -0.000225786 -0.000220911 2.21943e-005 -0.000956239 0.000122911 -2.73208e-005 -66.7416 80.4058 67.2171 -0.000437142 1.59575e-005 -2.73205e-005 -0.000136617 -0.000109275 -5.46412e-005 -6.42159 81.2158 8.01779 -0.000218577 1.69148e-005 0.000212141 0.000901569 -0.000184793 -0.000218565 -59.9282 75.5373 58.5147 -7.53986 4.40059 3.30742 -167.277 84.4999 48.8109 -144.55 10.9351 13.2406 -1.14921e-005 32.3839 3.4453e-005 -101.613 12.5391 0.611442 -5.21559e-006 18.5811 2.15086e-006 -12.1591 0.906778 -8.49827 -72.0648 39.0385 39.3397 33.3638 2.10361 14.835 0.588946 0.308273 6.35287 -99.6409 81.413 100.35 -0.0181409 3.00989e-005 -0.117315 -0.124139 0.00241116 -0.799296 -79.8382 79.5773 80.5374 -0.000260633 -0.000218546 2.35664e-005 -0.000956209 0.000123023 -2.73261e-005 -66.7416 80.4058 67.2171 -0.000437119 1.4902e-005 -2.73258e-005 -0.000136586 -0.000109255 -5.46483e-005 -6.42159 81.2158 8.01779 -0.000218552 1.96012e-005 0.000212288 0.000901602 -0.000191215 -0.000218578 0.000811311 0.56661 89.91 -10.1435 -4.21281 -5.55662 9.3283e-007 -2.31187 -1.50814e-008 59.5821 4.03184 -0.00713546 -2.97867e-008 5.94319 -2.17698e-008 -17.7424 -3.66369 6.49046 15.277 -13.9987 22.0395 -180 -0.566579 -90.09 -68.3898 3.13884 11.0683 -8.1976e-007 5.96672 -2.8029e-008 71.0036 -2.82413 -0.00768641 3.77595e-007 -4.35211 -9.65494e-009 -65.7686 -2.29391 0.451869 -35.4947 -3.37412e-007 -1.26457e-007 
-561.488 161.517 -626.262 64.8929 -58.3956 71.4025 -180 4.29621e-031 -90 2.39749 -1.43 2.03348 4.8464 -2.77319 4.12685 4.8464 -2.77276 4.12682 -2.32698 6.92281 7.00521 3.55943 8.84549 -10.2601 120.092 75.5343 58.4939 -4.19593 10.8675 4.79379 -167.277 84.4999 48.8109 127.187 12.8751 32.2217 -2.12003e-005 47.195 4.40691e-005 -75.5517 25.34 0.651757 1.90459e-007 37.4152 -5.87878e-007 9.39379 -1.50987 -18.223 -72.0648 39.0385 39.3397 33.3638 2.10362 14.835 0.588947 0.308273 6.35287 -99.6409 81.413 100.35 -0.0181409 2.77908e-005 -0.117315 -0.124139 0.00241114 -0.799296 -79.8382 79.5773 80.5374 -0.000225786 -0.000220911 2.21943e-005 -0.000956239 0.000122911 -2.73208e-005 -66.7416 80.4058 67.2171 -0.000437142 1.59575e-005 -2.73205e-005 -0.000136617 -0.000109275 -5.46412e-005 -6.42159 81.2158 8.01779 -0.000218577 1.69148e-005 0.000212141 0.000901569 -0.000184793 -0.000218565 -59.9282 75.5373 58.5147 -7.50398 4.70895 3.41571 -167.277 84.4999 48.8109 -144.778 11.0392 13.3345 -1.15559e-005 32.4735 3.44872e-005 -101.564 12.3933 0.6112 -5.2069e-006 18.3614 2.1481e-006 -12.1405 0.933617 -8.76231 -72.0648 39.0385 39.3397 33.3638 2.10361 14.835 0.588946 0.308273 6.35287 -99.6409 81.413 100.35 -0.0181409 3.00989e-005 -0.117315 -0.124139 0.00241116 -0.799296 -79.8382 79.5773 80.5374 -0.000260633 -0.000218546 2.35664e-005 -0.000956209 0.000123023 -2.73261e-005 -66.7416 80.4058 67.2171 -0.000437119 1.4902e-005 -2.73258e-005 -0.000136586 -0.000109255 -5.46483e-005 -6.42159 81.2158 8.01779 -0.000218552 1.96012e-005 0.000212288 0.000901602 -0.000191215 -0.000218578 0.000811311 0.56661 89.91 -18.4746 -4.55623 -8.14491 9.32901e-007 -2.04066 -1.50787e-008 68.9731 4.53799 -0.00773008 -2.94998e-008 6.693 -2.18014e-008 -23.5304 -2.30304 3.9487 -4.55223 -6.48679 7.70152 -180 -0.566579 -90.09 -64.5296 3.76367 11.2496 -8.19571e-007 6.34933 -2.80492e-008 71.5497 -3.54582 -0.00770535 3.77411e-007 -5.43506 -9.67058e-009 -70.1247 -3.27865 0.696372 -35.4947 3.81151e-007 7.67593e-008 
